# xmcd
#
# Track frame offsets:
#	150
#	13108
#	26448
#	42547
#	54408
#	73703
#	87374
#	99267
#	110685
#	127113
#	138811
#	147120
#	160094
#	171906
#	181488
#	196985
#
# Disc length: 2778 seconds
#
# Revision: 1
# Processed by: cddbd v1.5.1PL2 Copyright (c) Steve Scherf et al.
# Submitted via: audiograbber 1.83.01
#
DISCID=dd0ad810
DTITLE=Old Time Bluegrass Singers - Threads
DYEAR=2006
DGENRE=Bluegrass
TTITLE0=You're My Darling
TTITLE1=No One Dear But You
TTITLE2=Down By the River
TTITLE3=I Hear My Savior Calling
TTITLE4=There Is a Trap
TTITLE5=Dear Mary
TTITLE6=Jealous Heart
TTITLE7=Come and Knock
TTITLE8=My Blue Ridge Memories
TTITLE9=Tolland Deserted
TTITLE10=O'er the Road I'm Bound
TTITLE11=Have I Stayed Away Too Long
TTITLE12=Squared Off Salt Creek
TTITLE13=A Crown He Wore
TTITLE14=Down Where the Drunkards Roll
TTITLE15=Where Shall I Be
EXTD=
EXTT0=
EXTT1=
EXTT2=
EXTT3=
EXTT4=
EXTT5=
EXTT6=
EXTT7=
EXTT8=
EXTT9=
EXTT10=
EXTT11=
EXTT12=
EXTT13=
EXTT14=
EXTT15=
PLAYORDER=
